<svg xmlns="http://www.w3.org/2000/svg" viewBox="0 0 192 192" width="192" height="192">
  <rect width="192" height="192" rx="40" fill="#1f1f1f"/>
  <g transform="translate(36 42)" fill="#f0b31e">
    <path d="M30 36c0-15 12-27 27-27 6 0 12 2.4 16.5 6 4.5-3.6 10.5-6 16.5-6 15 0 27 12 27 27 0 4.5-1.2 9-3 12 4.8 4.5 7.5 10.8 7.5 18 0 12-9 21-21 21-3 6-9 10.5-16.5 10.5-5.4 0-10.2-2.4-13.5-6-3.3 3.6-8.1 6-13.5 6-7.5 0-13.5-4.5-16.5-10.5-12 0-21-9-21-21 0-7.2 2.7-13.5 7.5-18-1.8-3-3-7.5-3-12z"/>
  </g>
  <g stroke="#fff" stroke-width="3.5" stroke-linecap="round" fill="none">
    <path d="M30 50l-9-9"/>
    <path d="M162 50l9-9"/>
    <path d="M30 142l-9 9"/>
    <path d="M162 142l9 9"/>
    <circle cx="20" cy="96" r="2.5" fill="#fff"/>
    <circle cx="172" cy="96" r="2.5" fill="#fff"/>
  </g>
</svg>
